# xmcd
#
# Track frame offsets: 
#        150
#        20941
#        34254
#        36282
#        43752
#        53118
#        67593
#        95373
#        109654
#        122098
#        124400
#        130969
#        149103
#        150930
#        164776
#
# Disc length: 2508 seconds
#
# Revision: 6
# Processed by: cddbd v1.5.2PL0 Copyright (c) Steve Scherf et al.
# Submitted via: ExactAudioCopyFreeDBPlugin 1.0
#
DISCID=db09ca0f
DTITLE=Mardi Gras.BB - Alligatorsoup
DYEAR=1999
DGENRE=Jazz
TTITLE0=Down Down Down
TTITLE1=Jungle Telegraph
TTITLE2=Poo!
TTITLE3=Munsters' Theme #1
TTITLE4=Let That River Flow
TTITLE5=Herb Cooky
TTITLE6=Bittersweet
TTITLE7=Funkin' Up Your Mardi Gras
TTITLE8=Apache
TTITLE9=One Before Munsters' Theme
TTITLE10=Guess What! (Munsters' Theme) #1
TTITLE11=Bye Bye Babylon
TTITLE12=Da Big Warm Up, Y'all
TTITLE13=Prescription Blues
TTITLE14=Blue Gospel
EXTD=Mardi Gras B.B. - a.k.a. the mean motherfuckers - are a european 
EXTD=brass band that plays New Orleans jazz/blues. YEAR: 1999
EXTT0=
EXTT1=
EXTT2=
EXTT3=
EXTT4=
EXTT5=
EXTT6=
EXTT7=
EXTT8=
EXTT9=
EXTT10=
EXTT11=
EXTT12=
EXTT13=
EXTT14=
PLAYORDER=
